<svg version="1.2" xmlns="http://www.w3.org/2000/svg" viewBox="0 0 672 280" width="672" height="280">
	<title>2</title>
	<style>
		.s0 { opacity: .99;fill: #fc904d } 
		.s1 { opacity: .98;fill: #a4a3a4 } 
		.s2 { opacity: .99;fill: #fa914e } 
	</style>
	<g id="Background">
		<path id="Path 0" fill-rule="evenodd" class="s0" d="m503.5 7.02c1.65-0.01 5.37 1 8.27 2.23 3.88 1.66 5.26 2.78 5.24 4.25-0.01 1.1 0.24 4.02 0.57 6.5 0.53 4.03 0.27 4.86-2.5 8-1.86 2.1-2.66 3.7-1.99 4 0.77 0.34 0.45 2.31-3.09 12l2.5 1.5c2.49 1.49 2.49 1.53 0.96 6.25-0.85 2.61-1.3 5.54-1 6.5 0.44 1.43-0.43 1.97-4.71 2.93-2.89 0.64-6.17 2.1-7.3 3.25-1.12 1.14-3.76 6.57-5.85 12.07-2.09 5.5-4.86 12.7-6.15 16-1.28 3.3-2.47 8.47-2.64 11.5-0.17 3.03-0.86 5.95-1.53 6.5-0.76 0.62-1.33 4.39-1.78 18.65l-4.25-3.07c-4.11-2.98-4.25-3.26-4.25-8.58 0-5-0.18-5.45-2-5-1.66 0.41-2.19-0.23-3.12-3.75-0.68-2.6-0.9-8.33-0.55-14.75 0.32-6.02 1.59-14.55 2.99-20 1.33-5.22 4.9-15.8 7.93-23.5 3.03-7.7 7.64-19.4 10.24-26 2.61-6.6 5.07-12.67 5.47-13.5 0.41-0.82 1.82-2.06 3.14-2.74 1.32-0.67 3.75-1.24 5.4-1.24zm-343.25 32.02c0.41-0.02 4.01 0.71 8 1.62 5.39 1.24 7.89 2.38 9.75 4.45 2.47 2.75 2.49 2.93 1.97 16.58-0.51 13.5-0.67 14.26-6.8 33.81-3.45 11-7.09 22.25-8.1 25-1.01 2.75-5.01 14.9-8.89 27-3.89 12.1-8.5 27.18-10.26 33.5-1.76 6.32-3.54 12.18-3.97 13-0.42 0.82-1.38 4.15-2.11 7.39-0.8 3.5-1.95 6.07-2.84 6.32-0.82 0.24-2.29 0.85-3.25 1.36-1.54 0.82-1.75 0.4-1.75-3.57 0-2.67 0.51-4.7 1.25-5 1-0.4 1-0.6 0-1-0.69-0.28-1.25-1.85-1.25-6.5l-3 2c-1.65 1.1-3.67 1.78-4.5 1.5-1.02-0.34-1.5-1.86-1.5-4.75 0.01-2.34 0.67-8.3 1.48-13.25 0.81-4.95 2.83-14.85 4.48-22 1.66-7.15 3.02-13.56 3.03-14.25 0-0.69-0.67-1.25-1.49-1.25-0.82 0-3.19 1-5.25 2.22-2.06 1.21-5.78 3.63-8.25 5.37-2.47 1.74-6.75 4.17-9.5 5.41-2.75 1.24-6.46 2.2-11.5 2v7c0 4-0.43 7-1 7-0.55 0-1.79 0.33-2.75 0.73-1.24 0.52-1.53 0.37-1-0.5 0.41-0.68 0.3-1.45-0.25-1.73-0.55-0.28-2.55 0.96-4.44 2.75-2.47 2.33-3.32 3.89-3 5.5 0.28 1.41-0.15 2.53-1.16 3-1.08 0.51-1.41 1.48-1 3 0.33 1.24 1.27 2.25 2.1 2.25 0.83 0 1.53 0.34 1.58 0.75 0.04 0.41 0.23 1.43 0.42 2.25 0.19 0.82-0.63 2.02-1.82 2.66-1.2 0.64-2.97 1.42-3.93 1.75-1.46 0.49-1.75 1.84-1.75 8.09 0 6.21-0.3 7.62-1.75 8.19-0.96 0.38-2.42 0.76-3.25 0.85-0.83 0.09-2.06 0.23-2.75 0.31-0.69 0.08-1.25 0.94-1.25 1.9 0.01 0.96-0.89 2.31-2 3-1.1 0.69-2 1.93-2 2.75 0 0.82-0.45 2.4-1 3.5-0.95 1.9-1.17 1.82-4.25-1.56-2.93-3.22-3.13-3.81-2-6 1-1.95 1-2.51 0-2.81-0.79-0.24-0.08-1.62 1.94-3.75 1.8-1.91 6.89-11.21 11.7-21.38 5.49-11.61 9.24-18.36 10.57-19 1.14-0.55 1.89-1.45 1.68-2-0.21-0.55 0.19-1 0.89-1 0.7 0 1.1 0.34 0.87 0.75-0.22 0.41 0.05 0.97 0.6 1.25 0.55 0.28 1-0.4 1-1.5 0-1.1-0.34-2-0.75-2-0.41 0-0.86-1.12-1-2.5-0.14-1.37 0.36-3.74 1.11-5.25 1-2.02 1.2-5.11 0.14-20.52l8.5 1.27 4.12-8.25c2.27-4.54 4.52-8.36 5-8.5 0.48-0.14 0.89-0.81 0.89-1.5 0.01-0.69 1.31-3.72 2.89-6.75 1.58-3.03 4.29-8.2 6.04-11.5 1.74-3.3 4.04-6.79 5.11-7.75 1.07-0.96 2.4-1.75 2.95-1.75 0.55 0 1.01 2.36 1.03 5.25 0.03 4.95-0.22 5.49-4.5 9.5-2.49 2.34-4.53 4.92-4.53 5.75 0 0.83-1.19 2.74-5.28 7l2.64 2.25c1.45 1.24 2.64 3.15 2.64 4.25 0 1.1 0.45 2.22 1 2.5 0.55 0.28 0.78 1.17 0.5 2-0.28 0.82-0.05 2.18 0.5 3q1 1.5 0.01 5.25c-0.55 2.06-1 4.99-1 6.5-0.01 1.51 0.33 2.76 0.74 2.78 0.41 0.02 1.56-0.77 2.55-1.75 1.35-1.34 1.72-3.02 1.5-6.78-0.26-4.39-0.06-5.02 1.7-5.14 1.1-0.08 3.8-0.2 6-0.27 2.81-0.08 3.55-0.38 2.5-1-1.15-0.67-0.61-1.14 2.25-1.98 2.06-0.61 3.95-1.45 4.19-1.86 0.25-0.41 1.54-4.8 2.87-9.75 1.33-4.95 3.37-12.38 4.54-16.5 1.17-4.13 3.5-13.35 5.18-20.5 2.21-9.44 2.75-13.27 1.94-14-0.76-0.69-1.64-0.33-2.79 1.13-0.92 1.17-2.19 2.97-2.82 4-1.05 1.74-1.23 1.66-3.86-4.02l-1.18 5.89-1.16-2.75c-0.64-1.51-1.72-3.05-2.41-3.41-0.71-0.37-2.02 0.38-3.04 1.75-1.45 1.94-1.79 2.07-1.75 0.66 0.02-0.96 1.5-3.66 3.29-6 1.79-2.34 4.6-6.22 6.25-8.63 1.65-2.4 4.91-6.12 7.25-8.25 2.34-2.13 5.71-4.53 7.5-5.33 1.79-0.8 3.59-1.48 4-1.5zm-29.5 34.95c0.69 0.01 1.24 1.02 1.22 2.26-0.02 1.24-1.26 4.41-2.75 7.05-1.67 2.94-3.3 4.68-4.22 4.49-0.83-0.17-1.64-1.43-1.81-2.8-0.18-1.37 0.27-3.8 1-5.39 0.72-1.6 2.21-3.52 3.31-4.26 1.1-0.75 2.56-1.35 3.25-1.35z"/>
		<path id="Path 1" class="s1" d="m615.68 105.75c-0.23 0.41-0.99 2.55-1.69 4.75-0.7 2.2-2.78 7.04-4.63 10.75-1.85 3.71-3.81 6.75-4.36 6.75-0.55 0-1.18-0.34-1.39-0.75-0.22-0.41 0.46-3.45 1.5-6.75 1.05-3.3 1.79-7.35 1.65-9-0.21-2.37-0.79-3.06-2.76-3.31-2.4-0.29-2.59 0.1-4.65 9.5-1.69 7.77-1.9 10.29-1 12.1 0.63 1.26 2.05 2.53 3.15 2.83 1.35 0.35 2.89-0.39 4.73-2.3 2.59-2.68 2.77-2.72 3.38-0.82 0.36 1.1-0.53 6.39-1.98 11.75-1.46 5.41-2.19 9.75-1.63 9.75 0.55 0 2.09-1.91 3.41-4.25 1.33-2.34 4.48-11.45 6.99-20.25 2.51-8.8 4.58-17.01 4.59-18.25 0-1.24-0.66-2.47-1.49-2.75-0.82-0.28-1.93-0.5-2.45-0.5-0.52 0-1.14 0.34-1.37 0.75zm-35.21 8.5c-1.56 1.24-3.88 4.61-5.15 7.5-1.28 2.89-2.66 7.24-3.07 9.68-0.63 3.71-0.42 4.78 1.25 6.53 1.1 1.16 2.79 2.09 3.75 2.07 1.05-0.02 2.85-2.03 4.5-5.03 1.51-2.75 3.09-5 3.5-5 0.41 0 1.2 1.13 1.75 2.5 0.55 1.38 1.56 2.51 2.25 2.53 0.69 0.01 2.25-1 3.48-2.25 1.22-1.26 2.24-2.62 2.25-3.03 0.01-0.41-0.77-0.74-1.73-0.73-1.5 0.01-1.64-0.55-1-4 0.71-3.82 0.63-4.02-1.75-4.02-2.05 0-3.13 1.17-6 6.5-1.92 3.57-4.17 6.5-5 6.5-0.82 0-1.5-0.45-1.5-1 0-0.55 1.16-3.36 2.57-6.25 1.42-2.89 3.67-6.49 5.01-8 1.43-1.61 3.46-2.75 4.93-2.75 1.55 0 2.49-0.57 2.49-1.5 0-0.83-1.01-1.72-2.25-1.99-1.24-0.26-3.42-0.49-4.85-0.5-1.43 0-3.87 1-5.43 2.24z"/>
		<path id="Path 2" fill-rule="evenodd" class="s2" d="m517.07 10.5l2.01 2.5c1.1 1.38 1.97 3.18 1.93 4-0.05 0.82-0.68 2.63-2.74 6.5l-0.65-3.5c-0.35-1.93-0.62-4.85-0.6-6.5zm9.59 33.64c0.19 1.02-0.56 3.66-1.66 5.86-1.25 2.51-3.76 5.12-6.75 7q-4.75 3.01-5.75 1.99-1-1 0.5-6.49 1.51-5.49 0.5-6.51c-0.67-0.69 0.13-1.04 2.5-1.08 1.93-0.04 5.04-0.64 6.91-1.35 3.09-1.17 3.43-1.12 3.75 0.58zm-346.59 0.66c1.98 1.48 3.14 3.42 3.57 5.95 0.35 2.06 0.34 6-0.01 8.75-0.35 2.75-1.3 6.8-2.12 9-1.44 3.89-1.48 3.66-1.45-8.5 0.02-6.88-0.37-12.95-0.86-13.5-0.49-0.55-1.15-1.65-1.47-2.45-0.38-0.91 0.48-0.64 2.34 0.75zm-43.69 21.47c0.62 0.21 1.78 1.69 4.04 6.23l1.08-5.48 1.6 2.74c1.57 2.68 1.47 2.97-4.79 14.24-3.52 6.33-9.86 18.36-14.1 26.75-4.24 8.38-8.16 15.1-8.71 14.92-0.55-0.18-1.17-1.42-1.39-2.75-0.21-1.33-1.51-3.32-5.38-6.42l2.64-2.75c1.45-1.51 2.63-3.42 2.63-4.25 0-0.83 2.04-3.41 4.54-5.75 4.27-4.01 4.53-4.55 4.5-9.5-0.03-3.99-0.4-5.25-1.54-5.25-0.82 0-1.5 0.45-1.5 1 0 0.55-0.67 1.22-1.5 1.5-1.07 0.36-0.71-0.97 1.25-4.67 2.72-5.1 2.76-5.13 3.25-2.27 0.28 1.6 1.18 3.05 2 3.23 0.93 0.19 2.55-1.54 4.22-4.49 1.5-2.64 2.73-5.81 2.75-7.05 0.02-1.24-0.42-2.25-0.97-2.25-0.55 0-1.9 0.45-3 1-1.8 0.9-1.75 0.6 0.55-3.12 1.66-2.68 2.74-3.64 3.09-2.75 0.4 1 0.95 0.76 2.08-0.93 0.84-1.27 2.04-2.14 2.66-1.93zm382.18 22.81c0.04-0.04-0.66 3.18-1.55 7.17-0.97 4.38-2.82 9.03-4.67 11.75-1.69 2.47-5.96 7.2-9.5 10.5-3.53 3.3-8.43 7-10.88 8.23-2.45 1.22-5.47 2.23-6.71 2.25-2.15 0.02-2.25-0.37-2.45-8.92-0.14-6.16 0.17-9.12 1-9.5 0.66-0.31 1.99-0.05 2.95 0.58 1.42 0.92 3.17 0.4 9.25-2.75 5.31-2.75 9.69-6.13 15-11.56 4.13-4.21 7.53-7.7 7.56-7.75zm-48.98 22.67c0.24 0.69 1.32 1.03 2.42 0.75 1.82-0.45 2-0.02 1.84 10l-2.36-5c-1.29-2.75-2.34-5.45-2.34-6 0.01-0.55 0.21-0.44 0.44 0.25zm-351.15 19.25c0.79 0 1.3 1.87 1.42 5.25 0.14 3.87-0.28 5.72-1.58 7.03-0.97 0.98-2.1 1.77-2.52 1.75-0.41-0.02-0.75-1.16-0.75-2.53 0-1.38 0.5-4.53 1.1-7 0.61-2.47 1.65-4.5 2.33-4.5zm-35.7 1.01c0.43 0.01 1.68 0.25 2.78 0.54 1.82 0.47 1.98 1.22 1.71 7.74-0.28 6.47-0.45 7-1.69 5.21-0.75-1.1-2.1-4.03-2.98-6.5-0.88-2.47-1.37-5.06-1.1-5.75 0.28-0.69 0.85-1.24 1.28-1.24zm13.34 23.93l6.6 0.56-3.17 7c-1.75 3.85-4.91 11.5-7.01 17-2.11 5.5-4.09 10.22-4.41 10.5-0.32 0.28-0.68 1.18-0.81 2-0.12 0.82-2.48 6.68-5.23 13-2.75 6.32-6.47 13.18-8.27 15.23-1.8 2.05-4.5 3.97-6.02 4.25-2.3 0.44-3.48-0.26-7.22-4.23-2.46-2.61-4.71-5.99-5-7.5-0.29-1.51-0.3-3.2-0.03-3.75 0.32-0.62 1.02-0.53 1.87 0.25 1.07 0.97 1.12 1.74 0.25 3.44-0.96 1.88-0.66 2.68 2.13 5.75 3.09 3.38 3.31 3.46 4.25 1.56 0.55-1.1 1-2.68 1-3.5 0-0.82 0.91-2.06 2.01-2.75 1.1-0.69 2-2.04 2-3 0-0.96 0.56-1.82 1.24-1.9 0.69-0.08 1.93-0.22 2.75-0.31 0.83-0.09 2.29-0.47 3.25-0.85 1.45-0.57 1.75-1.98 1.75-8.19 0-6.25 0.3-7.6 1.75-8.09 0.97-0.33 2.73-1.11 3.93-1.75 1.2-0.64 2.02-1.84 1.83-2.66-0.2-0.82-0.39-1.84-0.43-2.25-0.04-0.41-0.75-0.75-1.58-0.75-0.82 0-1.77-1.01-2.1-2.25-0.4-1.52-0.08-2.49 1-3 1.01-0.47 1.44-1.59 1.16-3-0.32-1.61 0.54-3.17 3-5.5 1.9-1.79 3.89-3.03 4.44-2.75 0.55 0.28 0.67 1.05 0.25 1.73-0.53 0.87-0.24 1.02 1 0.5 0.97-0.4 2.2-0.73 2.75-0.73 0.57 0 1.02-3.03 1.04-7.03zm-10.92 3.32c0.39 0.68 0.52 1.58 0.28 1.99-0.23 0.41 0.02 0.75 0.57 0.75 0.55 0 1 0.9 1 2 0 1.1-0.45 1.78-1 1.5-0.55-0.27-0.82-0.84-0.59-1.25 0.22-0.41-0.17-0.75-0.88-0.75-0.7 0-1.11 0.56-0.9 1.25 0.2 0.69-0.42 1.26-1.38 1.27-1.49 0.01-1.53 0.15-0.25 0.98 0.83 0.53 1.05 0.99 0.5 1.01-0.55 0.03-1.34-0.19-1.75-0.48-0.41-0.29 0.25-2.55 1.46-5.02 1.43-2.9 2.47-4.05 2.94-3.25zm46.14 33.79l0.45 2.73c0.24 1.49 0.97 3.09 1.6 3.55 0.87 0.61 0.84 0.93-0.09 1.25-0.76 0.25-1.27 2.3-1.29 5.17-0.04 3.79 0.21 4.53 1.25 3.65 0.71-0.61 2.3-1.4 3.54-1.75 1.24-0.36 2.27-0.31 2.28 0.1 0.02 0.41-1.1 1.99-2.5 3.5-1.39 1.51-2.98 2.53-3.53 2.25-0.55-0.27-1.16 0.06-1.36 0.75-0.25 0.89-1.2 0.64-3.25-0.84-1.59-1.15-3.43-3.63-4.08-5.5-0.66-1.88-1.22-5.32-1.25-7.66-0.05-3.35 0.26-4.14 1.44-3.75 0.83 0.28 2.69-0.39 4.15-1.47z"/>
		<path id="Path 3" fill-rule="evenodd" class="s0" d="m455.5 47.5l0.63 31-3.07 3.25c-1.73 1.84-3.06 4.33-3.06 5.75 0 1.38 0.45 2.5 1 2.5 0.55 0 1 0.45 1 1 0 0.56-0.7 0.67-1.59 0.25-0.99-0.47-1.95-0.19-2.57 0.75-0.7 1.07-0.81 0.49-0.4-2 0.32-1.92 0.84-7.55 1.16-12.5 0.46-7.15 0.27-9.41-0.93-11-1.46-1.94-1.68-1.82-6.84 3.76-2.93 3.17-5.89 5.75-6.58 5.75-0.69-0.01-1.24 0.55-1.23 1.24 0.01 0.69-1.91 4.63-4.26 8.75-2.35 4.13-5.57 11.33-7.16 16-1.71 5.06-3.07 11.54-3.36 16-0.41 6.33-0.15 8.13 1.64 11.5 1.17 2.2 2.13 3.44 2.12 2.75 0-0.69 1.12-1.93 2.5-2.75 2.22-1.33 2.44-1.33 2 0-0.27 0.82-0.95 1.5-1.5 1.5-0.55 0-1 0.45-1 1 0 0.55 0.68 1 1.5 1 0.82 0 1.5 0.45 1.5 1 0 0.55-1.46 1.07-3.25 1.15-2.94 0.14-2.98 0.18-0.5 0.5 1.51 0.19 2.98 1.03 3.25 1.85 0.36 1.09-0.45 1.64-3 2-2.22 0.32-3.5 1.05-3.5 2 0 1.05-1.06 1.5-3.5 1.5-1.93 0-4.74-0.48-6.25-1.07-1.51-0.58-3.81-2.05-5.1-3.25-1.29-1.2-3.61-4.65-5.15-7.68-1.54-3.03-3.13-7.3-3.53-9.5-0.4-2.2-1.1-4.45-1.55-5-0.44-0.55-0.62-5.05-0.4-10 0.31-6.54 1.01-10.23 2.59-13.5 1.2-2.47 3.36-7.42 4.82-11 1.45-3.58 4.71-9.42 7.26-13 2.54-3.58 6.58-8.07 8.96-9.98 2.39-1.91 7.28-4.93 10.85-6.69 3.57-1.77 8.3-3.66 10.5-4.19 2.2-0.54 6.7-0.9 16-0.64zm-71.88 16.72c0.21 1.53 0.83 2.78 1.38 2.78 0.58 0 0.75 1.35 0.41 3.25-0.33 1.79-0.79 6.4-1.03 10.25-0.36 5.73-0.14 7.18 1.2 8 1.52 0.92 1.51 1.27-0.1 4.5-0.96 1.92-1.8 5.3-1.86 7.5-0.07 2.2-0.66 4.45-1.32 5-0.65 0.55-1.44 2.13-1.76 3.5-0.31 1.38-0.11 3.17 0.45 4 0.9 1.33 1.12 1.33 1.99 0 0.76-1.15 0.99-0.73 1 1.75 0.02 2.8-0.54 3.53-3.98 5.25-2.64 1.32-4.93 1.78-6.75 1.37-1.51-0.35-3.57-1.37-4.57-2.25-1-0.89-2.92-3.53-4.25-5.87-1.34-2.34-2.88-4.25-3.43-4.25-0.55 0-3.14 2.17-5.75 4.82-2.61 2.65-7.23 8.1-10.25 12.11-3.02 4.01-6.46 8.93-7.64 10.93-1.18 2-3.1 7.35-4.25 11.89-1.16 4.54-2.56 8.25-3.11 8.25-0.55 0-1 0.68-1 1.5 0 0.82-0.5 1.84-1.11 2.25-0.61 0.41-1.51 0.07-1.99-0.75-0.48-0.82-0.88-1.84-0.88-2.25-0.01-0.41 0.77-0.8 1.73-0.87 1.67-0.11 1.67-0.13 0-0.5-0.96-0.21-1.75-0.83-1.75-1.38 0-0.55-0.9-1-2-1-1.47 0-2 0.67-2 2.5 0 1.38 0.79 2.92 1.75 3.43 1.62 0.87 1.6 0.99-0.25 1.62-1.1 0.38-3.13 0.38-4.5-0.01-1.38-0.38-3.3-1.45-4.28-2.37-1.32-1.24-1.78-3.17-1.75-7.42 0.02-4.46-0.31-5.75-1.47-5.75-1.11 0-1.5-1.17-1.5-4.5 0-2.76-0.48-4.62-1.25-4.82-0.98-0.26-0.94-1.28 0.18-4.75 0.79-2.44 1.76-4.88 2.16-5.43 0.4-0.55 1.96-4.83 3.47-9.5 1.52-4.67 5.19-14.35 8.16-21.5 2.98-7.15 5.77-13.45 6.21-14 0.44-0.55 1.52-3.25 2.39-6 0.87-2.75 2.32-5.67 3.22-6.5 1.46-1.33 2.26-1.33 7.16 0 3.04 0.83 6.03 2.08 6.66 2.8 0.86 0.97 0.81 1.84-0.21 3.5-1.03 1.67-1.09 2.74-0.25 4.45 0.6 1.24 1.1 4.72 1.1 7.75 0 3.03 0.45 5.72 1 6 0.62 0.31 0.43 1.63-0.5 3.5-0.82 1.65-1.5 3.9-1.5 5 0 1.11 0.67 2 1.5 2 0.82 0 3.52-2.59 5.99-5.75 2.46-3.16 7.3-10.64 10.75-16.61 3.44-5.97 7.64-12.72 9.33-14.99 1.93-2.61 4.1-4.34 5.87-4.68 2.47-0.46 2.85-0.19 3.18 2.25zm-99.72 21.77c1.98-0.01 4.95 0.25 6.6 0.56 2.94 0.57 3.02 0.75 3.77 8.27 0.43 4.22 1.22 8.13 1.77 8.68 0.55 0.55 0.98 2.8 0.97 5-0.02 2.24-1.76 8.4-3.97 14-2.17 5.5-4.38 13.15-4.91 17-0.53 3.85-0.78 7.56-0.55 8.25 0.23 0.69 1.66 1.14 5.92 0.75l0.31 8c0.31 7.91 0.28 8.01-2.5 9.32-1.55 0.73-4.61 1.57-6.81 1.88-2.2 0.31-5.57 0.06-7.5-0.54-1.93-0.61-4.7-2.36-6.18-3.88-1.47-1.53-3.66-5.71-4.87-9.28-1.76-5.2-2.13-8.18-1.83-14.92 0.23-5.04-0.02-8.56-0.62-8.79-0.55-0.21-1.53 0.2-2.18 0.91-0.64 0.72-3.42 5.8-6.17 11.3-2.74 5.5-5.75 12.25-6.67 15-0.92 2.75-2.93 7.25-4.47 10-1.53 2.75-4.3 6.28-6.15 7.85-2.84 2.4-3.9 2.73-6.86 2.14-1.93-0.39-4.51-1.1-5.75-1.6-1.24-0.49-2.73-2.13-3.31-3.64-0.73-1.9-0.74-5.22-0.05-10.75 0.55-4.4 1.9-11.82 3-16.5 1.11-4.68 1.81-8.84 1.56-9.25-0.25-0.41-0.9-0.75-1.45-0.75-0.55 0-1.9 1.57-3 3.5-1.1 1.93-2.34 3.5-2.75 3.5-0.41 0-1.35-1.69-2.07-3.75-0.73-2.06-1.56-4.87-1.85-6.25-0.39-1.84 0.97-5 5.15-12 3.12-5.22 8.68-13.5 12.35-18.38 3.67-4.89 7.91-9.5 9.42-10.25 1.51-0.76 3.65-1.37 4.75-1.37 1.83 0 2 0.67 2 8 0 6.44 0.29 8 1.5 8 0.82 0 1.5 0.45 1.5 1 0 0.55-0.56 1.14-1.25 1.3-0.82 0.2-0.47 1.07 3.25 4.7l-3.14 7.75c-1.79 4.41-2.87 8.5-2.5 9.5 0.35 0.96 1.2 1.49 1.89 1.18 0.69-0.31 3.04-3.35 5.22-6.75 2.19-3.4 7.39-10.9 11.57-16.68 4.17-5.78 8.12-11.51 8.77-12.75 0.66-1.24 1.11-3 1.01-3.92-0.1-0.92 0.64-2.5 1.65-3.5 1.09-1.09 3.28-1.83 5.43-1.84zm-86.93 10.11c1.94 0.37 5.84 1.26 8.66 1.96 3.28 0.82 5.2 1.85 5.32 2.86 0.1 0.87 0.36 2.93 0.57 4.58 0.22 1.65-0.26 4.01-1.06 5.25-0.81 1.24-1.37 2.81-1.25 3.5 0.12 0.69-0.33 2.26-1 3.5-0.67 1.24-0.99 2.7-0.71 3.25 0.28 0.55-1.04 4.49-2.92 8.75-1.88 4.26-4.4 10.45-5.59 13.75-1.19 3.3-2.35 6.79-2.58 7.75-0.25 1.07 0.17 1.75 1.09 1.75 0.82 0 2.85-1.8 4.5-4 2.95-3.93 3.02-3.96 4.09-1.75 0.59 1.24 0.77 2.93 0.38 3.75-0.38 0.82-0.87 3.53-1.09 6-0.22 2.57 0.07 4.71 0.67 5 0.64 0.3-0.65 3.84-3.24 8.88-2.37 4.61-5.77 10.12-7.56 12.25-2.44 2.91-3.99 3.87-6.25 3.87-2.33 0-3-0.44-3-2 0-1.1-0.79-2.83-1.75-3.84-0.96-1.01-2.54-2.14-3.5-2.5-1.13-0.43-2.09-0.04-2.72 1.09-0.92 1.67-0.97 1.67-1 0-0.02-0.96-2.05-3.66-8.99-10.25l1.41-8c0.78-4.4 2.15-11.15 3.06-15 0.9-3.85 2.75-9.93 4.1-13.5 1.35-3.57 3.81-9.88 5.47-14 1.66-4.13 4.18-10.96 5.6-15.19 1.58-4.7 3.21-7.83 4.17-8.04 0.87-0.2 3.17-0.05 5.12 0.33zm194.7 4.4c0.25 1.1-0.03 2.45-0.62 3-0.6 0.55-1.08 1.79-1.07 2.75 0.01 0.96-0.43 1.97-0.98 2.25-0.55 0.28-0.77-0.18-0.5-1 0.3-0.89-0.11-1.5-1-1.5-0.82 0-1.5-0.45-1.5-1 0-0.55 0.79-1.2 1.75-1.46 0.96-0.25 2.14-1.48 2.61-2.75 0.8-2.16 0.88-2.18 1.31-0.29zm51.55 3.5c0.43 0 0.78 0.22 0.78 0.5 0 0.28-0.73 1.96-1.62 3.75-0.89 1.79-2.25 3.92-3.03 4.75-0.77 0.82-1.34 1.95-1.26 2.5 0.08 0.55 0.1 5.05-0.04 19l-3.78 1.23c-2.07 0.68-4.11 1.24-4.52 1.25-0.41 0.01-0.75-2.68-0.75-5.98 0-4.73 0.48-6.59 2.25-8.79 1.24-1.53 4.26-6.25 6.72-10.5 2.45-4.24 4.82-7.71 5.25-7.71z"/>
		<path id="Path 4" fill-rule="evenodd" class="s1" d="m571.66 96.39c0.74 0.34 1.79 0.61 2.34 0.61 0.55 0 0.83 1.46 0.62 3.25-0.21 1.79-1.56 7.75-2.99 13.25-1.43 5.5-3.32 15.18-4.2 21.5-0.88 6.32-2.02 12.18-2.52 13-0.81 1.33-1.02 1.33-1.89 0-0.55-0.82-1-3.64-1-6.25-0.01-3.11-0.45-4.76-1.27-4.77-0.69-0.01-2.71 2.01-4.5 4.5-2.47 3.44-3.91 4.53-6 4.56-1.51 0.03-3.42-0.7-4.25-1.63-1.18-1.31-1.35-3.08-0.8-8.29 0.5-4.72 1.52-7.91 6.41-15.62h11.89l3.17-12c1.74-6.6 3.27-12.16 3.4-12.36 0.13-0.19 0.85-0.08 1.59 0.25zm-19.74 39.61c-0.59 1.93-0.89 3.95-0.66 4.5 0.23 0.55 1.34-0.8 2.47-3 1.12-2.2 2.66-5.69 3.41-7.75 0.75-2.06 1.02-3.75 0.6-3.75-0.42 0-1.66 1.46-2.75 3.25-1.09 1.79-2.47 4.82-3.07 6.75zm-22.69-9.04c0.7-0.03 1.84 0.69 2.53 1.6 1.03 1.34 0.87 3.33-0.86 10.79-1.17 5.03-3.41 13.2-5 18.15-1.58 4.95-3.78 10.46-4.89 12.25-1.1 1.79-2.35 3.24-2.76 3.22-0.41-0.01 0.26-4.17 1.49-9.25 1.23-5.07 2.25-10.01 2.25-10.97 0.01-0.96-0.33-1.74-0.74-1.73-0.41 0.01-1.78 1.03-3.05 2.25-2.06 2.01-2.61 2.11-5.5 0.99-2.99-1.15-3.4-1.04-6.2 1.74-1.66 1.64-4.12 2.99-5.5 3.02-1.37 0.02-3.23-0.76-4.13-1.74-0.9-0.98-1.9-2.68-2.23-3.78-0.33-1.1 0.06-4.47 0.87-7.5 0.8-3.03 1.47-5.84 1.48-6.25 0-0.41-0.78-0.76-1.74-0.77-1.26-0.01-2.27 1.61-3.6 5.75-1.02 3.17-3.11 8.02-4.65 10.77-1.53 2.75-4.52 6.51-6.64 8.36-3.33 2.9-4.34 3.27-7.36 2.71-1.98-0.37-4.7-1.95-6.25-3.61-1.51-1.63-2.75-3.86-2.75-4.96 0-1.1 0.67-4.36 1.49-7.25 0.82-2.89 2.85-6.94 4.5-9 2.82-3.51 3.36-3.75 8.51-3.75 4 0 5.64 0.41 6 1.5 0.28 0.82 0.2 2.74-0.16 4.25-0.36 1.51-1.34 3.88-2.18 5.25-0.84 1.38-2.46 3.52-3.59 4.78-1.36 1.49-3.19 2.26-5.32 2.25-2.02-0.02-3.44 0.54-3.75 1.47-0.27 0.82-0.05 2.4 0.5 3.5 0.64 1.28 1.98 1.99 3.75 1.98 1.96-0.02 4.06-1.39 7.29-4.75 2.98-3.11 5.63-7.38 7.75-12.48 1.95-4.71 3.01-8.73 2.71-10.25-0.32-1.61-0.05-2.49 0.75-2.47 0.69 0.02 2.15 0.68 3.25 1.47 1.4 1 2.52 1.14 3.75 0.47 0.96-0.54 2.54-0.99 3.5-1.01 0.96-0.03 2.28 0.53 2.94 1.25 0.93 1.01 0.43 2.98-2.25 9.04-1.89 4.26-3.33 8.5-3.19 9.42 0.14 0.91 0.7 1.84 1.25 2.06 0.55 0.21 2.69-1.89 4.75-4.67 2.89-3.89 4.12-6.9 5.37-13.06q1.63-8.01 3-8c0.76 0 2.05 0.22 2.88 0.5 0.83 0.28 1.5 1.63 1.5 3 0 1.38-0.9 5.65-2 9.5-1.1 3.85-1.66 7.22-1.25 7.48 0.41 0.27 1.49-0.3 2.39-1.25 0.9-0.95 3.23-5.55 5.18-10.23 1.94-4.68 3.78-9.29 4.08-10.25 0.3-0.96 1.12-1.77 1.83-1.79zm-55.61 22.79c-1.52 3.05-1.51 3.23 0.13 2.99 1.09-0.17 2.15-1.74 2.81-4.15 0.58-2.13 0.99-4.05 0.92-4.26-0.08-0.21-0.61 0.2-1.19 0.9-0.57 0.7-1.77 2.73-2.67 4.52zm-10.88-5.98c0.23 0.4-0.37 3.2-1.35 6.23-0.97 3.03-3.23 7.97-5 11-1.78 3.03-4.07 6.85-5.08 8.5-1.05 1.69-2.71 3-3.82 3-1.27 0-2.57-1.25-3.65-3.5-1.53-3.19-1.54-3.94-0.16-8.5 0.84-2.75 2.07-6.8 2.75-9 0.99-3.24 1.73-4.05 3.9-4.25 1.47-0.14 2.92 0.31 3.22 1 0.3 0.69-0.37 3.72-1.5 6.75-1.13 3.03-2.05 5.84-2.05 6.25 0 0.41 0.68 0.75 1.5 0.75 0.9 0 3.36-3.79 6.16-9.48 2.56-5.22 4.84-9.16 5.08-8.75zm-29.36 6.6c2.26 0.34 4.7 1.18 5.41 1.87 0.72 0.69 1.28 2.5 1.25 4.01-0.02 1.51-0.71 4.1-1.54 5.75-0.82 1.65-2.29 3.06-3.25 3.14-0.96 0.08-2.87 0.19-4.25 0.25-2.18 0.1-2.54 0.62-2.79 4.11-0.18 2.5 0.2 4.26 1 4.68 0.71 0.38 2.19 0.21 3.29-0.37 1.1-0.58 3.54-2.46 8.83-7.31l-1.97 3.5c-1.09 1.93-3.52 4.53-5.42 5.78-1.89 1.25-4.11 2.28-4.94 2.28-0.82 0.01-2.74-0.91-4.25-2.03-1.63-1.2-2.99-3.36-3.33-5.28-0.33-1.79-0.12-5.05 0.46-7.25 0.58-2.2 2.48-6.19 4.21-8.87 3.11-4.8 3.23-4.87 7.29-4.26zm-40.11 10.16c1.78 0.38 3.81 1.21 4.52 1.84 0.72 0.62 1.3 2.7 1.3 4.63 0 1.95-0.87 4.61-1.96 6-1.48 1.89-2.88 2.5-9.63 2.5v4.49c0 3.71 0.35 4.54 2 4.81 1.31 0.22 3.48-1.17 6.26-3.98 2.35-2.38 4.27-3.87 4.26-3.32 0 0.55-0.78 2.13-1.73 3.5-0.95 1.38-2.64 3.27-3.76 4.22-1.14 0.96-3.79 1.74-6.03 1.78-2.6 0.04-4.6-0.56-5.71-1.72-0.94-0.98-2-3.13-2.37-4.78-0.39-1.79-0.01-5.02 0.94-8 0.88-2.75 3.19-6.73 5.14-8.84 3.15-3.41 3.89-3.76 6.77-3.13zm-1.77 12.47c0.83 0 1.76-0.56 2.07-1.25 0.31-0.69 0.4-2.15 0.2-3.25-0.32-1.7-0.62-1.52-2.07 1.25-1.46 2.8-1.49 3.25-0.2 3.25zm-23.57-5.98c2.51 0 5.25 0.45 6.07 0.98 0.83 0.53 1.28 1.01 1 1.06-0.27 0.05-1.62 0.3-3 0.56-1.37 0.26-3.35 1.24-4.39 2.18-1.04 0.93-3.18 4.4-4.75 7.7-1.57 3.3-2.86 7.01-2.86 8.25 0 1.33 0.61 2.25 1.5 2.25 0.83 0 2.96-2.44 4.75-5.42 1.79-2.98 4.04-6.8 5-8.5 1.25-2.2 2.39-3.01 4-2.83 1.31 0.15 2.19 0.88 2.09 1.75-0.08 0.83-1.94 8.25-4.12 16.5-2.19 8.25-4.93 16.91-6.1 19.25-1.17 2.34-3.58 5.15-5.37 6.25-1.79 1.09-4.26 1.99-5.5 2-1.24 0-2.47-0.45-2.75-1-0.27-0.55 0.29-0.99 1.25-0.98 0.96 0.01 2.76-0.89 4-2 1.24-1.11 2.88-3.26 3.64-4.77 0.76-1.51 2.33-5.9 3.48-9.75 1.16-3.85 2.11-8.01 2.11-9.25 0.01-1.24-0.43-2.25-0.98-2.25-0.55 0-1.9 1.35-3 3q-2 3-4.5 3c-1.58 0-2.92-0.82-3.65-2.25-0.64-1.24-1.15-4.5-1.14-7.25 0.02-2.75 0.79-6.8 1.71-9 0.93-2.2 2.87-5.24 4.32-6.75 2.12-2.22 3.5-2.75 7.19-2.73zm-30.86 6.88l5.71 0.3c4.28 0.22 5.72 0.68 5.72 1.8 0 0.84-1.1 1.65-2.5 1.85-1.37 0.19-3.12 0.86-3.88 1.5-0.76 0.63-2.67 3.4-4.24 6.15-1.58 2.75-2.89 6.13-2.92 7.5-0.04 2.26 0.11 2.36 1.59 1 0.91-0.82 2.95-3.86 4.55-6.75 2-3.62 3.52-5.25 4.9-5.25 1.1 0 2.26 0.56 2.59 1.25 0.32 0.69 0.09 2.26-0.5 3.5-0.93 1.91-0.79 2.33 0.91 2.75 1.1 0.28 2.01 1.06 2.03 1.75 0.01 0.69-1.12 2.26-2.5 3.5-1.39 1.24-2.98 2.03-3.53 1.75-0.55-0.28-1.45-1.62-2-3-0.69-1.73-1.39-2.23-2.25-1.61-0.69 0.48-2.15 2.75-3.25 5.03-1.64 3.39-2.5 4.14-4.75 4.11-1.73-0.02-3.12-0.77-3.75-2.03-0.55-1.1-1-2.79-1.01-3.75-0.01-0.96 0.65-4 1.47-6.75 0.81-2.75 2.85-7.16 4.54-9.8zm-24.5 8.1c1.45 0 2.58 0.67 2.8 1.65 0.21 0.91-0.07 3.73-0.62 6.25-0.54 2.53-2.29 9.44-3.87 15.35-1.58 5.91-4.23 13.45-5.88 16.75-1.65 3.3-3.45 6-4 6-0.55 0-0.84-0.56-0.64-1.25 0.2-0.69 1.44-5.61 2.75-10.95 1.32-5.33 2.05-10.06 1.64-10.5-0.42-0.44-1.9 0.32-3.29 1.7-2.14 2.11-3.11 2.39-6.25 1.82-3.26-0.6-4.04-0.33-6.46 2.25-1.51 1.61-3.65 2.93-4.75 2.93-1.1 0-3.2-1.24-4.66-2.75-2.32-2.39-2.58-3.28-1.99-6.75 0.37-2.2 0.89-5.69 1.16-7.75 0.27-2.06 0.12-3.75-0.33-3.75-0.46 0-1.28 0.56-1.83 1.25-0.55 0.69-1.58 3.27-2.29 5.75-0.7 2.47-2.36 6.64-3.67 9.25-1.31 2.61-3.98 6.32-5.92 8.25-2.85 2.82-4.31 3.5-7.5 3.5-2.77 0-4.88-0.76-6.97-2.5-2.47-2.06-3-3.24-2.99-6.75 0.01-2.44 1.07-6.49 2.5-9.5 1.37-2.89 3.39-6.15 4.49-7.25 1.52-1.52 3.34-2 7.5-2 5.45 0 5.5 0.03 5.5 3 0 1.65-0.9 4.8-2 7-1.1 2.2-3.24 4.92-4.75 6.03-1.51 1.12-3.76 2.02-5 2-1.24-0.01-2.51 0.53-2.83 1.22-0.33 0.69-0.1 2.26 0.5 3.5 0.69 1.44 1.98 2.25 3.58 2.25 1.41 0 4.11-1.43 6.16-3.25 2.22-1.97 5.39-6.79 8.06-12.25 3.19-6.53 4.24-9.75 3.84-11.75-0.41-2.03-0.16-2.75 0.94-2.75 0.83 0 1.73 0.45 2 1 0.31 0.62 2.39 0.71 5.46 0.25 4.42-0.67 5.02-0.54 5.63 1.25 0.44 1.29-0.43 4.5-2.45 9-1.73 3.85-3.14 7.79-3.14 8.75 0 0.96 0.56 1.76 1.25 1.78 0.69 0.01 2.21-1 3.38-2.25 1.18-1.26 2.81-3.63 3.63-5.28 0.82-1.65 2.33-6.49 3.37-10.76 1.03-4.27 2.21-7.76 2.62-7.75 0.41 0 1.65 0.46 2.75 1.01 1.27 0.63 2.01 2.01 2.01 3.75 0.01 1.51-0.89 5.56-2 9-1.1 3.44-1.74 6.59-1.42 7 0.32 0.41 1.51-0.38 2.65-1.75 1.13-1.38 3.29-5.2 4.79-8.5 1.5-3.3 3.04-7.46 3.42-9.25 0.55-2.59 1.18-3.25 3.12-3.25zm-56.57 23.5q-1 2.5 0 2.5c0.55 0 1.63-1.01 2.4-2.25 0.77-1.24 1.6-3.26 1.86-4.5 0.25-1.24 0.16-2.25-0.2-2.25-0.36 0-1.2 0.9-1.86 2-0.66 1.1-1.65 3.12-2.2 4.5zm149.95-22.29c0.87 0.17 1.66 1.51 1.8 3.05 0.15 1.67-0.53 3.52-1.75 4.74-1.1 1.1-2.18 1.89-2.41 1.75-0.22-0.14-0.13-2.41 0.2-5.05 0.46-3.61 0.99-4.72 2.16-4.49zm-231.78 12.79c1.94 0 3.18 0.71 3.94 2.25 0.67 1.36 0.84 4.22 0.44 7.25-0.37 2.75-1.95 7.7-3.51 11-1.55 3.3-5.12 8.36-7.93 11.25-4.42 4.54-5.11 5.79-5.11 9.25 0 2.6 0.54 4.26 1.54 4.75 1.04 0.51 2.67-0.36 8.7-6.25l-1.62 3.25c-0.89 1.79-2.79 4.04-4.23 5-2.05 1.38-3.17 1.53-5.25 0.73-1.52-0.59-3.38-2.6-4.39-4.75-1.49-3.18-1.59-4.66-0.71-9.98 0.56-3.44 1.74-8.5 2.61-11.25 0.87-2.75 3.16-7.93 5.1-11.5 1.94-3.58 4.44-7.51 5.56-8.75 1.19-1.33 3.19-2.25 4.86-2.25zm-8.54 25.75c-0.34 1.24-0.29 2.26 0.12 2.26 0.41 0.01 2.18-2.35 3.93-5.25 1.75-2.89 3.6-7.22 4.12-9.61 0.52-2.39 0.86-4.58 0.76-4.85-0.1-0.28-2.01 3.03-4.24 7.35-2.23 4.32-4.34 8.86-4.69 10.1zm79.88-23.21c0.08 0.18-0.28 2.04-0.8 4.14-0.51 2.1-2.95 7.87-5.42 12.82-2.46 4.95-5.36 9.9-6.44 11-1.97 2-1.97 2-4.2-0.5-1.23-1.38-2.56-3.18-2.94-4-0.63-1.33-0.78-1.33-1.36 0-0.35 0.82-2.55 3.41-4.87 5.75-2.83 2.85-5.08 4.25-6.85 4.25-1.44 0-3.53-0.45-4.63-1-1.1-0.55-2.46-2.46-3.02-4.25-0.58-1.83-0.71-5.22-0.3-7.75 0.39-2.48 2.09-6.53 3.77-9 2.61-3.85 3.59-4.54 6.8-4.75 2.06-0.14 4.65 0.2 5.75 0.75 1.39 0.69 2 2 2 4.25 0 1.79-0.9 4.71-2 6.5-1.72 2.79-2.56 3.25-6 3.25-3.3 0-4.1 0.39-4.6 2.25-0.33 1.24-0.11 3.26 0.5 4.5 0.61 1.24 1.89 2.27 2.85 2.29 0.96 0.02 3.81-2.12 6.32-4.75 2.52-2.64 5.03-5.69 5.59-6.79 0.56-1.1 1.73-5.04 4.17-15.5h3.58c1.98 0 3.6 0.34 3.6 0.75 0.01 0.41-1 3.55-2.25 6.96-1.24 3.42-1.88 6.57-1.43 7 0.46 0.44 1.36 0.08 2-0.8 0.65-0.87 3.17-5.21 5.61-9.64 2.44-4.43 4.5-7.91 4.57-7.73zm-30.01 18.46c0.83 0 1.69-1.13 1.91-2.55 0.23-1.4 0.31-2.79 0.19-3.09-0.13-0.3-0.99 0.85-1.91 2.55-1.46 2.66-1.48 3.09-0.19 3.09zm-29.81-6c0.72 0 2.89 0.67 4.81 1.5 1.93 0.82 3.5 2.17 3.5 3 0 0.82-1.11 2.74-2.47 4.25-2.41 2.69-2.47 2.7-2.5 0.5-0.01-1.32-0.65-2.25-1.53-2.25-0.82 0-2.4 1.8-3.5 4-1.1 2.2-2 4.45-2 5 0 0.55 1.58 1.67 3.5 2.5 2.67 1.14 3.5 2.09 3.5 4 0 1.59-1.19 3.51-3.25 5.26-1.79 1.53-4.6 3.38-6.25 4.12-1.65 0.74-3.79 1.07-4.75 0.73-1.42-0.5-0.77-1.41 3.44-4.86 2.86-2.34 5.22-4.69 5.25-5.22 0.04-0.53-0.88-1.43-2.02-2-1.15-0.57-2.86-1.71-3.8-2.53-0.94-0.83-1.69-2.85-1.67-4.5 0.02-1.65 0.78-4.13 1.7-5.5 0.91-1.38 2.8-3.74 4.19-5.25 1.39-1.51 3.12-2.75 3.85-2.75zm-82.29 5.99c0.61-0.01 2.57 0.33 4.38 0.75 1.8 0.42 3.25 0.98 3.24 1.26-0.02 0.27-1.38 1.29-3.02 2.25-1.65 0.96-3.85 3.44-4.89 5.5-1.05 2.06-2.06 4.62-2.25 5.68-0.26 1.38 0.36 2.12 4.64 3.18l-4.25 4.2c-2.34 2.3-4.25 4.53-4.25 4.94 0 0.41-1.12 6.15-2.49 12.75-1.36 6.6-2.7 12.22-2.97 12.5-0.27 0.27-1.24-0.18-2.15-1-1.34-1.22-1.55-2.74-1.1-8 0.3-3.58 1.75-11.23 3.22-17 1.47-5.78 3.78-13.43 5.14-17 1.36-3.58 3.18-7.29 4.06-8.25 0.87-0.96 2.08-1.76 2.69-1.76zm41.97 5.53c1.72 0.34 3.92 0.82 4.88 1.05 0.96 0.24 1.98 1.33 2.25 2.43 0.28 1.1 0.07 3.46-0.46 5.25-0.53 1.79-1.77 4.05-2.75 5.04q-1.79 1.78-5.29 1.5c-3.07-0.26-3.54 0.01-3.82 2.21-0.18 1.37-0.07 3.51 0.25 4.75 0.35 1.39 1.33 2.25 2.57 2.25 1.1 0 3.57-1.69 5.5-3.75 2.07-2.22 3.48-3.14 3.47-2.25-0.02 0.82-0.58 2.21-1.25 3.07-0.67 0.87-2.57 2.42-4.22 3.45-1.65 1.04-4.35 1.82-6 1.74-1.82-0.09-3.7-1.05-4.79-2.45-1.17-1.51-1.78-3.97-1.75-7.06 0.02-2.61 0.77-6.21 1.66-8 0.89-1.79 2.74-4.74 4.12-6.56 2.18-2.88 2.91-3.22 5.63-2.67zm-17.35 6.48c1.54 0 1.76 0.66 1.45 4.25-0.21 2.34-0.74 6.17-1.17 8.51-0.69 3.71-0.57 4.27 0.95 4.25 0.96 0 1.75 0.44 1.75 0.99 0 0.55-0.67 1.67-1.5 2.5-1.2 1.2-1.95 1.27-3.75 0.34-1.24-0.64-2.77-1.88-3.42-2.75-0.64-0.88-1.54-1.21-2-0.75-0.45 0.47-1.95 2.94-3.33 5.5-1.83 3.41-3.17 4.73-5 4.92-1.37 0.14-3.17-0.18-4-0.72-1.11-0.72-1.44-2.59-1.28-7.26 0.12-3.45 1.19-9.13 2.39-12.61 2.05-5.98 2.31-6.3 4.78-5.68 1.44 0.36 2.99 0.96 3.45 1.33 0.46 0.37-0.29 3.6-1.67 7.18-1.39 3.57-2.78 7.74-3.09 9.25q-0.58 2.75 0.67 2.76c0.69 0.01 2.66-2.35 4.39-5.25 1.72-2.89 4.35-7.85 5.84-11.01 1.84-3.91 3.29-5.75 4.54-5.75z"/>
		<path id="Path 5" class="s2" d="m455.83 62.87l0.32 15.63c-4.82 5.1-6.15 7.58-6.15 9 0 1.38 0.45 2.5 1 2.5 0.55 0 1 0.45 1 1 0 0.56-0.7 0.67-1.59 0.25-0.99-0.47-1.92-0.19-2.48 0.75-0.74 1.23-0.91 1.13-0.95-0.5-0.03-1.1-1.09 0.92-2.37 4.5-1.27 3.58-3.07 8.08-4.01 10-1.38 2.84-1.4 3.12-0.13 1.5 0.86-1.1 1.72-2.45 1.91-3 0.19-0.55 0.63-0.66 0.98-0.25 0.35 0.41-0.09 2.21-0.98 4-0.89 1.79-2.25 3.92-3.03 4.75-0.77 0.83-1.34 1.95-1.26 2.5 0.08 0.55 0.1 5.05 0.05 10l-0.09 9c-5.85 1.91-7.89 2.47-8.3 2.48-0.41 0.01-0.75-2.68-0.75-5.98v-6c-4.65 3.88-6.34 5.01-6.75 5.02-0.41 0.01-1.33-0.56-2.03-1.25-1.05-1.03-1.05-0.78 0 1.36 0.94 1.94 1.55 2.32 2.28 1.45 0.55-0.65 1.83-1.83 2.84-2.63 1.66-1.3 1.78-1.27 1.25 0.3-0.32 0.96-1.04 1.75-1.59 1.75-0.55 0-1 0.45-1 1 0 0.55 0.68 1 1.5 1 0.83 0 1.5 0.45 1.5 1 0 0.55-1.46 1.07-3.25 1.15-2.94 0.14-2.98 0.18-0.5 0.5 1.51 0.19 2.98 1.03 3.25 1.85 0.36 1.09-0.45 1.64-3 2-2.22 0.32-3.5 1.05-3.5 2 0 0.82 0.79 1.5 1.75 1.51 0.96 0 5.01-1.58 9-3.5 3.99-1.93 9.29-5.42 11.79-7.76 3.79-3.54 4.53-4.83 4.46-7.75-0.08-3.03 0.12-3.33 1.46-2.25 1.31 1.06 1.95 0.54 4.27-3.5 1.49-2.61 4-8.58 5.57-13.25 1.57-4.67 2.93-10.3 3.03-12.5 0.09-2.2 0.49-4.22 0.87-4.5 0.39-0.28 0.72-1.85 0.74-3.5 0.02-1.65 0.09-4.12 0.15-5.5 0.07-1.37 0.14-7 0.17-12.5 0.04-7.86-0.36-10.84-1.86-13.92-1.04-2.16-2.8-4.24-3.9-4.63-1.95-0.69-1.99-0.34-1.67 14.92zm-71.83 1.63c0 1.38 0.45 2.5 1 2.5 0.58 0 0.75 1.35 0.4 3.25-0.33 1.79-0.8 6.4-1.05 10.25-0.42 6.27-0.25 7.13 1.59 8.25 1.95 1.18 2.22 0.8 5.06-7.25 1.65-4.67 3-10.08 3-12 0-2.17-0.76-4.26-2-5.5-1.11-1.11-3.33-2-5-2-2.53 0-3 0.39-3 2.5zm-36.45 8c0.25 0.83-0.11 2.2-0.8 3.05-1 1.24-1 2.04 0 4 0.69 1.35 1.25 4.92 1.25 7.95 0 3.03 0.34 5.68 0.75 5.9 0.41 0.22 2.26-2.6 4.11-6.25 2.44-4.83 3.2-7.4 2.75-9.4-0.36-1.63-1.93-3.55-3.86-4.72-1.79-1.08-3.57-1.98-3.95-2-0.39-0.02-0.5 0.64-0.25 1.47zm-53.19 22.25c0.38 4.26 1.13 8.2 1.68 8.75 0.55 0.55 1 2.8 1.01 5 0.02 3.75 0.31 3.36 4.49-6.25 2.85-6.56 4.19-10.84 3.71-11.89-0.41-0.9-1.54-2.02-2.5-2.5-0.96-0.47-3.4-0.86-5.41-0.86h-3.66zm-46.61-5.17c0.86 0.29 1.25 2.91 1.25 8.42 0 6.44 0.29 8 1.5 8 0.82 0 1.5 0.45 1.5 1 0 0.55-0.56 1.14-1.25 1.3-0.81 0.2-0.39 1.18 1.17 2.75l2.42 2.45c5.95-15.5 7.67-20.56 7.67-21.25-0.01-0.69-1.14-1.7-2.51-2.25-1.38-0.55-4.86-0.96-7.75-0.92-2.89 0.04-4.69 0.27-4 0.5zm-36.37 14.17c0.36 3.23 0.06 5.47-0.93 7-0.8 1.24-1.36 2.81-1.24 3.5 0.11 0.69-0.34 2.26-1 3.5-0.67 1.24-0.99 2.7-0.71 3.25 0.27 0.55 2.3-2.37 4.5-6.5 2.2-4.12 4-8.62 4-10 0-1.37-0.68-3.17-1.5-4-0.83-0.83-1.99-1.5-2.58-1.5-0.68 0-0.88 1.71-0.54 4.75zm177.02-2.72c-1.05 1.12-2.2 2.02-2.56 2-0.36-0.02-1.57 0.76-2.67 1.72-1.11 0.96-2.28 2.88-2.6 4.25-0.33 1.38-0.14 3.17 0.42 4 0.9 1.33 1.12 1.33 1.99 0 0.76-1.16 0.98-0.81 0.96 1.5-0.03 2.73 0.12 2.87 1.63 1.5 0.92-0.83 2.36-2.85 3.2-4.5 0.84-1.65 1.91-4.24 2.38-5.75 0.55-1.78 0.49-2.57-0.15-2.25-0.55 0.28-1 1.4-1 2.5 0 1.1-0.45 2.22-1 2.5-0.55 0.28-0.78-0.17-0.5-1 0.29-0.89-0.11-1.5-1-1.5-0.83 0-1.5-0.45-1.5-1 0-0.55 0.79-1.2 1.75-1.46 0.96-0.25 2.01-1.37 2.33-2.5 0.32-1.12 0.5-2.04 0.4-2.04-0.1 0-1.04 0.91-2.08 2.03zm-81.65 29.75c-0.89 1.5-4.57 5.98-8.18 9.97-3.62 3.99-6.12 7.47-5.57 7.75 0.55 0.28 1 3.88 1 8v7.5c3.65-4.26 5.39-6.85 6.22-8.5 0.83-1.65 2.47-6.04 3.64-9.75 1.32-4.16 2.81-6.99 3.89-7.38 1.5-0.54 1.53-0.74 0.25-1.45-1.22-0.67-1.31-1.49-0.46-4.44 0.58-2 1-3.81 0.94-4.02-0.07-0.22-0.84 0.83-1.73 2.32zm-97.2 5.89c-4.2 6.98-4.59 8.1-3.55 10.33 0.64 1.38 0.85 3.18 0.47 4-0.38 0.82-0.87 3.53-1.09 6-0.25 2.93 0.05 4.73 0.86 5.17 0.8 0.42 2.32-1.04 4.17-4 1.61-2.57 4.42-7.26 6.25-10.42 1.84-3.16 3-5.75 2.59-5.75-0.41 0-1.34-1.69-2.06-3.75-0.72-2.06-1.67-5.02-2.12-6.58-0.8-2.76-0.92-2.64-5.52 5zm99.48 12.58c0.02 1.79 0.68 4.38 1.47 5.75 1.36 2.39 1.43 2.24 1.46-3.25 0.03-4.46-0.3-5.75-1.46-5.75-1.04 0-1.49 1.01-1.47 3.25zm11.97 7.25c0 1.38 0.67 2.72 1.5 3 0.82 0.28 1.27 0.95 1 1.5-0.28 0.55 0.4 1 1.5 1 1.66 0 1.83-0.33 1-2-0.55-1.1-1-2.22-1-2.5 0-0.28 0.79-0.67 1.75-0.88 1.66-0.37 1.66-0.39 0-0.5-0.96-0.07-1.75-0.57-1.75-1.12 0-0.55-0.9-1-2-1-1.47 0-2 0.67-2 2.5zm-152.61 16.75c0.39 1.79 1.35 4.6 2.14 6.25 0.79 1.65 2.79 3.79 4.45 4.75 1.66 0.96 4.82 1.75 7.02 1.75 2.89 0 4-0.42 4-1.5 0-0.82-0.79-2.33-1.75-3.34-0.96-1.01-2.54-2.14-3.5-2.5-1.14-0.43-2.09-0.04-2.72 1.09-0.93 1.67-0.97 1.67-1 0-0.02-0.96-1.75-3.55-3.85-5.75-2.1-2.2-4.19-4-4.65-4-0.46 0-0.52 1.46-0.14 3.25z"/>
	</g>
</svg>